<?xml version="1.0" encoding="utf-8"?>
<!-- Generator: Adobe Illustrator 24.3.0, SVG Export Plug-In . SVG Version: 6.00 Build 0)  -->
<svg version="1.1" id="Layer_1" xmlns="http://www.w3.org/2000/svg" xmlns:xlink="http://www.w3.org/1999/xlink" x="0px" y="0px"
	 viewBox="0 0 399.7 57.2" style="enable-background:new 0 0 399.7 57.2;" xml:space="preserve">
<style type="text/css">
	.st0{fill:#FFFFFF;}
</style>
<g>
	<path class="st0" d="M81.4,27.5v22.1c-2.8,1.3-5.3,2.3-7.8,2.9c-2.4,0.6-5.2,0.9-8.5,0.9c-5,0-9.1-1-12.3-3c-3.2-2-5.6-4.8-7.1-8.3
		c-1.5-3.5-2.2-7.6-2.2-12.2c0-5.4,1-9.9,2.9-13.4c2-3.5,4.6-6.1,7.8-7.7c3.3-1.6,6.9-2.4,10.8-2.4c2.9,0,5.6,0.3,8.1,1
		c2.5,0.7,4.8,1.7,7,3.1l-2.8,4.9c-1.6-1-3.4-1.9-5.3-2.5C70.2,12.3,68,12,65.7,12c-5.3,0-9.1,1.6-11.6,4.7c-2.4,3.1-3.7,7.5-3.7,13
		c0,5.8,1.2,10.2,3.5,13.4c2.3,3.1,6.1,4.7,11.4,4.7c3.3,0,6.5-0.6,9.6-1.7V32.9H63.4l0.7-5.5H81.4z"/>
	<path class="st0" d="M115.2,38.3H93.9c0,3.5,0.9,6,2.6,7.6c1.7,1.6,3.8,2.4,6.4,2.4c1.9,0,3.5-0.2,4.9-0.7c1.4-0.5,2.9-1.2,4.6-2.2
		l2.3,4.3c-3.8,2.5-7.8,3.7-12,3.7c-4.5,0-8.1-1.2-10.7-3.7c-2.7-2.5-4-6.4-4-11.9c0-3.1,0.6-5.9,1.7-8.4s2.8-4.5,5-6
		c2.2-1.5,4.9-2.3,8.1-2.3c2.7,0,5,0.5,6.9,1.6c1.9,1.1,3.4,2.6,4.3,4.5c1,1.9,1.5,4.1,1.5,6.6L115.2,38.3z M96.9,28
		c-1.4,1.4-2.3,3.4-2.7,5.9h15.2v-0.3c0-2.6-0.6-4.6-1.8-5.9c-1.2-1.3-2.9-2-5.1-2C100.2,25.8,98.3,26.5,96.9,28z"/>
	<path class="st0" d="M149.3,30.8v21.7h-6V33.1c0-1.7-0.2-3.1-0.5-4c-0.3-1-0.9-1.6-1.7-2.1c-0.8-0.4-1.9-0.6-3.3-0.6
		s-2.9,0.2-4.5,0.6c-1.6,0.4-3.1,0.9-4.5,1.6v24.1h-6V21.9l6-0.7v2.9c3.9-2.1,7.6-3.1,11.2-3.1C146.2,21.1,149.3,24.3,149.3,30.8z"
		/>
	<path class="st0" d="M205.6,7.3v45.3h-6.3V17.7c-0.7,2-1.6,4.1-2.7,6.3l-10.9,21.2h-6.2L168.7,24c-0.6-1.2-1.2-2.3-1.7-3.4
		c-0.5-1.1-1-2-1.3-2.8v34.8h-6.2V7.3h7.3l10.2,20c2.7,5.4,4.6,9.5,5.5,12.2c0.5-1.6,1.2-3.4,2.1-5.4c0.9-2,2-4.3,3.4-6.9l10.3-20
		H205.6z"/>
	<path class="st0" d="M236.8,23.5c1.8,1.6,2.7,4.2,2.7,7.7v21.3H234l-0.3-2.7c-3.2,2.3-6.9,3.5-11.1,3.5c-1.8,0-3.4-0.3-4.8-1
		c-1.4-0.7-2.5-1.6-3.3-2.9c-0.8-1.2-1.2-2.6-1.2-4.2c0-2.6,0.9-4.7,2.7-6.4c1.8-1.7,4.2-2.9,7.3-3.7c3-0.8,6.4-1.2,10.1-1.3v-1.5
		c0-2.1-0.4-3.6-1.3-4.6c-0.8-1-2.3-1.4-4.3-1.4c-3.4,0-6.9,1.2-10.6,3.6l-2.7-4.2c4.5-3.1,9.2-4.6,14.1-4.6
		C232.3,21.1,235,21.9,236.8,23.5z M220.9,47.4c0.7,0.6,1.8,0.9,3.3,0.9c3.2,0,6.3-0.9,9.3-2.8v-7.3c-4.1,0.2-7.3,0.8-9.9,1.9
		c-2.5,1.1-3.8,2.6-3.8,4.5C219.8,45.9,220.2,46.8,220.9,47.4z"/>
	<path class="st0" d="M266,21.2c0.7,0.1,1.4,0.2,2.1,0.4l-1.1,6.2c-1.6-0.6-3-0.8-4.3-0.8c-1.5,0-2.9,0.3-4.1,1
		c-1.3,0.7-2.5,1.9-3.6,3.7v20.8h-6V21.9l6-0.6v4.4c1.2-1.5,2.5-2.6,4.1-3.4c1.5-0.8,3.2-1.2,4.9-1.2
		C264.7,21.1,265.4,21.1,266,21.2z"/>
	<path class="st0" d="M287,36.2l13.4,15.9v0.4H293l-12.9-16v16h-6V4.5l6-0.7v32.3l13-14.1h6.6v0.4L287,36.2z"/>
	<path class="st0" d="M330,38.3h-21.3c0,3.5,0.9,6,2.6,7.6c1.7,1.6,3.8,2.4,6.4,2.4c1.9,0,3.5-0.2,4.9-0.7c1.4-0.5,2.9-1.2,4.6-2.2
		l2.3,4.3c-3.8,2.5-7.8,3.7-12,3.7c-4.5,0-8.1-1.2-10.7-3.7c-2.7-2.5-4-6.4-4-11.9c0-3.1,0.6-5.9,1.7-8.4c1.1-2.5,2.8-4.5,5-6
		c2.2-1.5,4.9-2.3,8.1-2.3c2.7,0,5,0.5,6.9,1.6c1.9,1.1,3.4,2.6,4.3,4.5c1,1.9,1.5,4.1,1.5,6.6L330,38.3z M311.7,28
		c-1.4,1.4-2.3,3.4-2.7,5.9h15.2v-0.3c0-2.6-0.6-4.6-1.8-5.9c-1.2-1.3-2.9-2-5.1-2C315,25.8,313.1,26.5,311.7,28z"/>
	<path class="st0" d="M356.1,51.4c-2.4,1.3-5,2-7.7,2c-2.9,0-5.2-0.8-6.9-2.5c-1.7-1.7-2.5-4.1-2.5-7.4V26.7h-6.2v-4.8h6.2V15l6-1
		v7.9h10.3l-0.6,4.8h-9.7v15.8c0,3.9,1.4,5.9,4.3,5.9c0.8,0,1.7-0.1,2.4-0.3c0.8-0.2,1.7-0.5,2.6-0.9L356.1,51.4z"/>
</g>
</svg>
